#!OML:ASF E:\emotionWalksFemale\Project 1\Capture day 1\Session 1\Female1.ASF
:FULLY-SPECIFIED
:DEGREES
1
root 8.9243 15.0378 41.6471 179.056 -1.89801 178.333
lowerback 4.13444 0.622086 -0.205138
upperback -5.8742 0.591203 0.20438
thorax -8.49706 0.207446 0.278157
lowerneck -3.52242 14.1807 8.8378
upperneck 13.1193 17.9992 1.39664
head 5.21553 9.21064 0.172839
rclavicle -4.42296e-015 3.18055e-015
rhumerus -49.9019 17.2396 -97.9148
rradius 37.8901
rwrist 0.226233
rhand 159.935 -69.5017
rfingers 7.12502
rthumb -173.723 -39.6147
lclavicle -4.42296e-015 3.18055e-015
lhumerus -47.4019 -3.31542 87.8461
lradius 38.5145
lwrist -4.95274
lhand -10.5607 -30.0488
lfingers 7.12502
lthumb 15.4437 -0.645774
rfemur -6.19174 11.7101 23.7963
rtibia 32.0205
rfoot -29.4132 -25.7875
rtoes 12.9412
lfemur -6.36701 -23.4461 -26.9237
ltibia 30.9419
lfoot -29.5542 22.8225
ltoes 0.512676
2
root 8.92108 15.0411 41.6509 179.101 -1.81941 178.232
lowerback 4.1301 0.689122 -0.243908
upperback -5.87047 0.675034 0.156404
thorax -8.49097 0.249336 0.23975
lowerneck -3.75078 14.1802 8.90438
upperneck 13.3402 17.9647 1.40747
head 5.32659 9.19776 0.193249
rclavicle -7.45443e-015 9.93923e-015
rhumerus -49.9001 17.2952 -97.868
rradius 37.9692
rwrist 0.237648
rhand 160.111 -69.5006
rfingers 7.12502
rthumb -173.553 -39.6187
lclavicle -7.45443e-015 9.93923e-015
lhumerus -46.1743 -3.50196 87.7144
lradius 37.6889
lwrist -5.51394
lhand -10.09 -30.0154
lfingers 7.12502
lthumb 15.897 -0.647891
rfemur -6.29738 11.8045 23.6719
rtibia 32.1025
rfoot -29.3817 -25.9649
rtoes 12.095
lfemur -6.48253 -22.7214 -26.9221
ltibia 30.8888
lfoot -28.8752 22.6497
ltoes -2.47072
3
root 8.91765 15.0437 41.6526 179.195 -1.86638 178.261
lowerback 4.02282 0.662123 -0.169982
upperback -5.8765 0.644 0.181648
thorax -8.43337 0.22924 0.229454
lowerneck -3.83487 14.2301 8.74765
upperneck 13.359 18.0141 1.598
head 5.31545 9.22666 0.277843
rclavicle -1.93815e-015 -3.18055e-015
rhumerus -49.7612 17.3918 -97.7686
rradius 37.9385
rwrist 0.38125
rhand 160.22 -69.4534
rfingers 7.12502
rthumb -173.448 -39.5748
lclavicle -1.93815e-015 -3.18055e-015
lhumerus -46.6204 -3.02328 87.3741
lradius 38.3425
lwrist -6.76034
lhand -9.24102 -29.9543
lfingers 7.12502
lthumb 16.7144 -0.653885
rfemur -6.3682 11.7431 23.6691
rtibia 32.0345
rfoot -29.3167 -25.9899
rtoes 12.1792
lfemur -6.6498 -22.7497 -26.8582
ltibia 30.9795
lfoot -28.8379 22.6654
ltoes -2.88416
4
root 8.91468 15.0459 41.6547 179.332 -1.8993 178.627
lowerback 3.87706 0.644002 0.261281
upperback -5.90956 0.654096 0.274657
thorax -8.37884 0.207485 0.0861205
lowerneck -3.90012 14.2256 8.81693
upperneck 13.3986 18.0123 1.48285
head 5.35571 9.22273 0.243636
rclavicle -7.25564e-015 -7.55382e-015
rhumerus -49.5961 17.41 -97.6952
rradius 37.8574
rwrist 0.615211
rhand 160.379 -69.3819
rfingers 7.12502
rthumb -173.294 -39.5081
lclavicle -7.25564e-015 -7.55382e-015
lhumerus -46.3475 -2.74499 87.0856
lradius 38.2854
lwrist -7.7579
lhand -8.55044 -29.7965
lfingers 7.12502
lthumb 17.3791 -0.553441
rfemur -6.5258 11.7142 24.0252
rtibia 32.0039
rfoot -29.306 -26.0972
rtoes 12.2296
lfemur -6.91489 -22.4983 -26.3343
ltibia 31.0288
lfoot -28.75 22.3515
ltoes -3.18516
5
root 8.9105 15.0423 41.6529 179.149 -1.81088 178.426
lowerback 3.99889 0.692125 0.143444
upperback -5.82841 0.714095 0.187633
thorax -8.36288 0.24574 0.0523797
lowerneck -3.92597 14.2003 8.97998
upperneck 13.3846 17.9919 1.27166
head 5.38969 9.20819 0.163627
rclavicle -7.20594e-015 -3.97569e-016
rhumerus -49.4719 17.373 -97.6437
rradius 37.8011
rwrist 0.915892
rhand 160.581 -69.5014
rfingers 7.12502
rthumb -173.099 -39.6339
lclavicle -7.20594e-015 -3.97569e-016
lhumerus -45.8732 -2.2654 86.4816
lradius 38.1662
lwrist -9.7021
lhand -7.24359 -29.978
lfingers 7.12502
lthumb 18.6365 -0.850697
rfemur -6.29527 11.6761 23.8144
rtibia 31.962
rfoot -29.3827 -26.0865
rtoes 11.8586
lfemur -6.69965 -22.3126 -26.6487
ltibia 31.0849
lfoot -29.0161 22.128
ltoes -3.88391
6
root 8.9098 15.0419 41.6569 179.141 -1.8926 178.441
lowerback 4.06277 0.671656 0.17561
upperback -5.83582 0.690369 0.192023
thorax -8.40815 0.232423 0.0410338
lowerneck -3.8976 14.2178 8.97809
upperneck 13.3267 18.0272 1.23066
head 5.37157 9.22342 0.150264
rclavicle -9.0447e-015 -1.63003e-014
rhumerus -49.4514 17.4271 -97.6116
rradius 37.8067
rwrist 1.23522
rhand 160.807 -69.6123
rfingers 7.12502
rthumb -172.881 -39.752
lclavicle -9.0447e-015 -1.63003e-014
lhumerus -45.4243 -0.931627 85.2329
lradius 38.2873
lwrist -13.4234
lhand -3.14261 -30.6994
lfingers 7.12502
lthumb 22.5771 -1.99964
rfemur -6.28764 11.635 23.827
rtibia 31.9226
rfoot -29.5544 -26.0272
rtoes 12.1211
lfemur -6.72757 -22.5769 -26.6606
ltibia 31.1449
lfoot -29.1849 22.1878
ltoes -3.10703
7
root 8.91149 15.0431 41.6641 179.277 -2.13402 178.538
lowerback 4.0813 0.604112 0.23044
upperback -5.92983 0.600099 0.253006
thorax -8.52137 0.183051 0.0849941
lowerneck -3.86825 14.2339 8.93115
upperneck 13.3501 18.058 1.21673
head 5.3721 9.23548 0.153238
rclavicle -4.96962e-015 3.97569e-015
rhumerus -49.5112 17.4894 -97.5677
rradius 37.8658
rwrist 1.35623
rhand 160.898 -69.6252
rfingers 7.12502
rthumb -172.793 -39.768
lclavicle -4.96962e-015 3.97569e-015
lhumerus -45.534 -1.46129 85.9509
lradius 38.0082
lwrist -11.8661
lhand -6.83706 -30.8732
lfingers 7.12502
lthumb 19.0275 -1.78395
rfemur -6.48238 11.5182 23.9177
rtibia 31.9353
rfoot -29.5656 -26.2259
rtoes 11.7675
lfemur -6.97525 -22.7238 -26.4521
ltibia 31.1453
lfoot -28.738 22.3748
ltoes -4.4566
8
root 8.90535 15.0403 41.6589 179.261 -1.98737 178.413
lowerback 3.94519 0.674966 0.187194
upperback -5.87743 0.691214 0.220065
thorax -8.38434 0.230534 0.0652344
lowerneck -3.89359 14.2314 8.95034
upperneck 13.3229 18.0654 1.13193
head 5.3775 9.23575 0.128175
rclavicle 1.89839e-014 -9.93923e-015
rhumerus -49.4395 17.4531 -97.4737
rradius 38.0273
rwrist 0.935633
rhand 160.791 -69.6823
rfingers 7.12502
rthumb -172.896 -39.8215
lclavicle 1.89839e-014 -9.93923e-015
lhumerus -45.4371 -1.38535 85.8777
lradius 38.2047
lwrist -11.3998
lhand -5.80972 -30.9683
lfingers 7.12502
lthumb 20.0153 -1.97917
rfemur -6.44349 11.4349 23.7446
rtibia 31.9402
rfoot -29.3575 -26.2485
rtoes 10.7809
lfemur -6.85323 -22.858 -26.7107
ltibia 31.1572
lfoot -28.6387 22.8605
ltoes -4.85191
9
root 8.90756 15.0457 41.6631 179.375 -2.0967 178.482
lowerback 3.82081 0.637664 0.239116
upperback -5.85634 0.645627 0.239232
thorax -8.28775 0.205698 0.0624079
lowerneck -3.9025 14.2388 9.03343
upperneck 13.17 18.1022 0.939156
head 5.35757 9.24781 0.0601919
rclavicle 1.23246e-014 1.82882e-014
rhumerus -49.2485 17.4215 -97.391
rradius 38.2719
rwrist 0.212907
rhand 160.642 -69.6846
rfingers 7.12502
rthumb -173.04 -39.819
lclavicle 1.23246e-014 1.82882e-014
lhumerus -45.3231 -1.37868 85.7359
lradius 38.2946
lwrist -12.5135
lhand -6.33352 -31.0152
lfingers 7.12502
lthumb 19.5117 -1.97425
rfemur -6.5737 11.4052 23.8223
rtibia 31.9455
rfoot -29.337 -26.3108
rtoes 11.0433
lfemur -7.05526 -22.7369 -26.5228
ltibia 31.1678
lfoot -28.483 22.6861
ltoes -5.15359
10
root 8.90692 15.0495 41.667 179.489 -2.11903 178.486
lowerback 3.71907 0.631141 0.2719
upperback -5.86266 0.636145 0.236707
thorax -8.23431 0.197922 0.0433218
lowerneck -3.86426 14.2473 9.13171
upperneck 13.0663 18.1399 0.745893
head 5.3472 9.2603 -0.011104
rclavicle 9.24349e-015 5.96354e-015
rhumerus -49.1737 17.488 -97.3823
rradius 38.4583
rwrist -0.150846
rhand 160.583 -69.719
rfingers 7.12502
rthumb -173.098 -39.8515
lclavicle 9.24349e-015 5.96354e-015
lhumerus -45.2322 -1.2718 85.5885
lradius 38.5226
lwrist -12.5096
lhand -5.98713 -31.3185
lfingers 7.12502
lthumb 19.8447 -2.31168
rfemur -6.73714 11.407 23.7986
rtibia 31.9873
rfoot -29.3 -26.3045
rtoes 11.4319
lfemur -7.20426 -22.7014 -26.4394
ltibia 31.1343
lfoot -28.5413 22.4217
ltoes -4.20755
